<svg width="36" height="36" viewBox="0 0 36 36" fill="none" xmlns="http://www.w3.org/2000/svg">
<path fill-rule="evenodd" clip-rule="evenodd" d="M26.1995 8.05695C25.1873 8.05695 24.3663 8.87803 24.3663 9.89018C24.3663 10.9023 25.1873 11.7234 26.1995 11.7234C27.2117 11.7234 28.0327 10.9023 28.0327 9.89018C28.0327 8.87803 27.2117 8.05695 26.1995 8.05695ZM18.0455 23.1368C15.2334 23.1368 12.9543 20.8563 12.9543 18.0442C12.9543 15.2334 15.2334 12.953 18.0455 12.953C20.8577 12.953 23.1367 15.2334 23.1367 18.0442C23.1367 20.8563 20.8577 23.1368 18.0455 23.1368ZM18.0455 10.2003C13.713 10.2003 10.2003 13.7117 10.2003 18.0442C10.2003 22.3766 13.713 25.8894 18.0455 25.8894C22.378 25.8894 25.8894 22.3766 25.8894 18.0442C25.8894 13.7117 22.378 10.2003 18.0455 10.2003ZM30.4807 24.2168C30.4115 25.708 30.1623 26.5166 29.9546 27.0539C29.6777 27.767 29.3454 28.2765 28.8109 28.8109C28.2764 29.3454 27.7683 29.6763 27.0538 29.9519C26.5166 30.1623 25.708 30.4116 24.2181 30.478C22.6078 30.5528 22.1246 30.568 18.0455 30.568C13.9664 30.568 13.4818 30.5528 11.8715 30.478C10.383 30.4116 9.57443 30.1623 9.03581 29.9519C8.32274 29.6763 7.81458 29.3454 7.28012 28.8109C6.74427 28.2765 6.41335 27.767 6.13643 27.0539C5.92735 26.5166 5.6795 25.708 5.61166 24.2168C5.53689 22.6065 5.52166 22.1233 5.52166 18.0442C5.52166 13.9665 5.53689 13.4833 5.61166 11.8716C5.6795 10.3831 5.92735 9.5731 6.13643 9.03587C6.41335 8.3228 6.74427 7.81464 7.28012 7.2788C7.81458 6.74433 8.32274 6.41341 9.03581 6.13649C9.57443 5.92603 10.383 5.67818 11.8715 5.61033C13.4832 5.53695 13.9664 5.52033 18.0455 5.52033C22.1246 5.52033 22.6064 5.53695 24.2181 5.61033C25.708 5.67818 26.5166 5.92603 27.0538 6.13649C27.7683 6.41341 28.2764 6.74433 28.8109 7.2788C29.3454 7.81464 29.6777 8.3228 29.9546 9.03587C30.1623 9.5731 30.4115 10.3831 30.4807 11.8716C30.5541 13.4833 30.568 13.9665 30.568 18.0442C30.568 22.1233 30.5541 22.6065 30.4807 24.2168ZM33.2292 11.747C33.1544 10.1214 32.8969 9.00957 32.5189 8.03895C32.1284 7.03372 31.6064 6.18218 30.7577 5.33203C29.9089 4.48326 29.056 3.96126 28.0521 3.5708C27.0801 3.1928 25.9697 2.93387 24.3441 2.86049C22.713 2.78572 22.1938 2.7691 18.0455 2.7691C13.8958 2.7691 13.3766 2.78572 11.7469 2.86049C10.1214 2.93387 9.01089 3.1928 8.03889 3.5708C7.03366 3.96126 6.18212 4.48326 5.33335 5.33203C4.4832 6.18218 3.9612 7.03372 3.57074 8.03895C3.19412 9.00957 2.9352 10.1214 2.86181 11.747C2.78704 13.3753 2.76904 13.8973 2.76904 18.0442C2.76904 22.1925 2.78704 22.7131 2.86181 24.3428C2.9352 25.9697 3.19412 27.0788 3.57074 28.0508C3.9612 29.056 4.4832 29.9076 5.33335 30.7563C6.18212 31.6051 7.03366 32.1285 8.03889 32.519C9.01089 32.897 10.1214 33.1531 11.7469 33.2279C13.3766 33.3026 13.8958 33.3206 18.0455 33.3206C22.1938 33.3206 22.713 33.3026 24.3441 33.2279C25.9697 33.1531 27.0801 32.897 28.0521 32.519C29.056 32.1285 29.9089 31.6051 30.7577 30.7563C31.6064 29.9076 32.1284 29.056 32.5189 28.0508C32.8969 27.0788 33.1544 25.9697 33.2292 24.3428C33.304 22.7131 33.322 22.1925 33.322 18.0442C33.322 13.8973 33.304 13.3753 33.2292 11.747Z" fill="white"/>
</svg>
