<?xml version="1.0" encoding="utf-8"?>
<svg width="50px" height="50px" viewBox="0 0 60 60" version="1.1" xmlns:xlink="http://www.w3.org/1999/xlink" xmlns="http://www.w3.org/2000/svg">
  <g id="Moon">
    <path d="M59.3879 33.2307C59.3929 33.0366 59.3923 32.8419 59.3841 32.6468C59.3779 32.4982 59.2821 32.3727 59.1579 32.2992C58.9821 32.1021 58.6215 32.07 58.477 32.3476C58.4676 32.3657 58.4588 32.384 58.4494 32.4021C58.5888 31.5711 58.6922 30.7343 58.7607 29.8947C58.865 30.0137 59.0516 30.0684 59.2001 30.0297C59.4422 29.9667 59.5236 29.7412 59.4927 29.521C59.3064 28.1943 59.1037 26.8699 58.8854 25.5481C59.0503 23.98 59.0483 22.4028 58.8793 20.8381C59.1011 20.9028 59.3112 20.7631 59.3975 20.5495C59.7415 19.6983 59.8142 18.7615 59.6292 17.8646C59.4925 17.2016 59.1644 16.135 58.302 16.1744C58.2565 16.1765 58.212 16.1819 58.1684 16.1901C57.8447 15.9051 57.4701 15.6704 57.0548 15.5019C56.9883 15.4749 56.9201 15.4761 56.855 15.4932C56.5264 14.3941 55.6745 13.4489 54.8288 12.6603C54.1062 11.9864 53.3611 11.3365 52.5986 10.7072C52.0472 10.0345 51.479 9.37514 50.8966 8.72824C50.9108 8.58474 50.8554 8.42914 50.7098 8.32254C50.554 8.20834 50.3919 8.10294 50.2273 8.00154C50.1126 7.87854 50.0002 7.75354 49.8844 7.63164C49.7944 7.53684 49.6927 7.49974 49.5953 7.50224C49.7194 7.32624 49.7091 7.05764 49.4784 6.90524C46.5744 4.98764 43.364 3.53454 40.0021 2.60494C39.9832 2.50244 39.9239 2.40294 39.8113 2.32874C36.9248 0.426238 33.3303 -0.322762 29.9002 0.126738C28.8021 0.136638 27.7044 0.268138 26.6307 0.522738C26.3463 0.590138 26.2804 0.849338 26.3661 1.05744C25.9961 1.20844 25.6325 1.37474 25.2771 1.55644C24.1993 1.84534 23.1274 2.15504 22.0611 2.48294C21.976 2.36964 21.8312 2.30564 21.6402 2.36354C17.0807 3.74484 12.8162 5.99554 9.11128 8.95954C8.34008 9.57654 7.59598 10.2254 6.87858 10.9022C6.77888 10.8698 6.66688 10.8771 6.56078 10.9474C6.46968 11.0077 6.38438 11.074 6.30188 11.143C6.19918 11.1838 6.11028 11.2596 6.06238 11.3655C5.47878 11.9775 5.18748 12.8203 5.28728 13.6633C5.10148 14.2167 4.91578 14.7701 4.72998 15.3235C4.56718 15.4531 4.40578 15.5841 4.24698 15.7178C3.99218 15.9325 3.76108 16.179 3.59948 16.4708C3.42628 16.7835 3.32358 17.1286 3.22278 17.4691C2.86928 18.0149 2.57468 18.5964 2.34358 19.2059C2.27768 19.326 2.21178 19.446 2.14858 19.5676C2.04048 19.7754 1.93748 19.9858 1.83688 20.1973C1.71118 20.1959 1.58948 20.2562 1.51688 20.4082C0.399579 22.7472 -0.124721 25.3288 0.025079 27.9129C0.032579 28.0424 0.085879 28.141 0.161579 28.2087C0.250979 28.9873 0.433179 29.7579 0.713579 30.502C0.897279 32.5569 1.38308 34.5779 2.15048 36.4984C2.27198 37.5262 2.41398 38.5519 2.57828 39.5739C2.72978 40.5159 2.84528 41.4967 3.12528 42.4119C3.37368 43.2239 3.84418 44.0308 4.73098 44.2558C4.91858 44.3034 5.11418 44.211 5.20808 44.059C5.43928 44.4734 5.67858 44.8834 5.92518 45.2893C6.08958 45.7666 6.27328 46.2371 6.47608 46.6999C6.47038 46.7697 6.48778 46.8448 6.53458 46.9212C6.40358 47.0381 6.33958 47.2363 6.43238 47.437C7.73028 50.243 10.3933 52.3679 13.4388 53.0482C13.5594 53.0751 13.6762 53.0463 13.7699 52.985C16.7076 55.6992 20.616 57.0542 24.5156 57.8971C24.2897 58.0373 24.2704 58.3487 24.4465 58.5352C25.3847 59.5292 26.7599 59.9727 28.1112 59.9987C29.738 60.0301 31.2979 59.4589 32.7976 58.9029C33.2187 58.7468 33.1872 58.0865 32.6862 58.0905C31.7261 58.0983 30.7675 58.0657 29.8125 57.9934C29.6377 57.9669 29.4626 57.9403 29.2872 57.9134C30.2671 57.922 31.2562 57.8238 32.2332 57.6891C36.3772 57.8912 40.54 57.5411 44.5916 56.6566C45.0511 56.5563 44.9525 55.8261 44.4803 55.8442C44.0067 55.8623 43.5331 55.8805 43.0595 55.8986C43.0697 55.8644 43.0754 55.8289 43.0762 55.7924C44.5356 55.499 45.8939 54.8202 46.9795 53.8167C48.1064 53.4103 49.1551 52.7959 50.0612 51.9965C50.2871 51.7972 50.1942 51.5155 49.9925 51.3784C50.33 51.1881 50.6479 50.9677 50.9387 50.7137C50.9748 50.8425 51.0224 50.9708 51.0852 51.0981C51.1768 51.284 51.4862 51.3726 51.6583 51.2465C53.3728 49.9899 54.6098 48.1836 55.1074 46.1281C55.1967 45.7592 54.819 45.5071 54.4921 45.6611C54.2755 45.7631 54.0639 45.8746 53.8554 45.9911C53.9894 45.7939 54.1091 45.5878 54.2069 45.371C54.2228 45.3358 54.2362 45.2997 54.251 45.264C54.2551 45.2618 54.2591 45.2604 54.2632 45.258C55.3697 44.6142 55.9251 43.2852 55.6103 42.0576C55.5666 41.8872 55.4163 41.7842 55.256 41.7637C55.3866 41.3633 55.5292 40.967 55.6821 40.5744C55.84 40.8563 56.3465 40.8497 56.4567 40.4821C56.6965 39.6825 56.9363 38.883 57.1761 38.0834C57.6064 38.8428 58.5345 38.7863 59.074 38.1276C59.6551 37.418 59.9603 36.5207 59.9967 35.6131C60.0309 34.7683 59.8129 33.9491 59.3879 33.2307Z" id="Shape-Copy" fill="#FFFFFF" stroke="none" />
  </g>
</svg>