<?xml version="1.0" encoding="utf-8"?>
<svg width="51px" height="50px" viewBox="0 0 51 50" version="1.1" xmlns:xlink="http://www.w3.org/1999/xlink" xmlns="http://www.w3.org/2000/svg">
  <defs>
    <rect width="51" height="50" id="artboard_1" />
    <clipPath id="clip_1">
      <use xlink:href="#artboard_1" clip-rule="evenodd" />
    </clipPath>
  </defs>
  <g id="IconMoonArrow-moon" clip-path="url(#clip_1)">
    <g id="Moon-Copy" transform="translate(-22 -5)">
      <path d="M71.7758 32.2057C71.7827 32.3683 71.7832 32.5305 71.779 32.6923C72.1332 33.2909 72.3148 33.9736 72.2863 34.6776C72.256 35.4339 72.0017 36.1817 71.5174 36.773C71.0678 37.3219 70.2944 37.369 69.9358 36.7362C69.736 37.4025 69.5362 38.0688 69.3363 38.7351C69.2445 39.0414 68.8224 39.0469 68.6908 38.812C68.5634 39.1392 68.4446 39.4694 68.3357 39.8031C68.4693 39.8202 68.5946 39.906 68.631 40.048C68.8933 41.071 68.4305 42.1785 67.5084 42.715C67.505 42.717 67.5016 42.7182 67.4982 42.72C67.4859 42.7498 67.4747 42.7799 67.4615 42.8092C67.38 42.9899 67.2802 43.1616 67.1686 43.3259C67.3423 43.2289 67.5187 43.1359 67.6992 43.0509C67.9716 42.9226 68.2863 43.1327 68.2119 43.4401C67.7972 45.153 66.7664 46.6583 65.3376 47.7054C65.1942 47.8105 64.9364 47.7367 64.8601 47.5818C64.8077 47.4757 64.7681 47.3688 64.738 47.2614C64.4957 47.4731 64.2307 47.6568 63.9495 47.8154C64.1176 47.9296 64.195 48.1644 64.0067 48.3304C63.2517 48.9966 62.3777 49.5086 61.4387 49.8473C60.534 50.6835 59.4021 51.2492 58.1859 51.4937C58.1852 51.5241 58.1805 51.5537 58.172 51.5822C58.5666 51.5671 58.9613 51.5519 59.356 51.5369C59.7495 51.5218 59.8316 52.1303 59.4487 52.2139C56.0724 52.9509 52.6034 53.2427 49.1501 53.0743C48.3359 53.1865 47.5116 53.2684 46.6951 53.2612C46.8412 53.2836 46.9871 53.3058 47.1328 53.3279C47.9286 53.3881 48.7275 53.4153 49.5276 53.4088C49.9451 53.4054 49.9713 53.9557 49.6204 54.0858C48.3706 54.5491 47.0707 55.0251 45.7151 54.9989C44.589 54.9773 43.443 54.6077 42.6611 53.7794C42.5144 53.6239 42.5305 53.3644 42.7187 53.2476C39.4691 52.5452 36.2121 51.416 33.764 49.1542C33.6859 49.2053 33.5886 49.2293 33.4881 49.2069C30.9501 48.6399 28.731 46.8692 27.6494 44.5309C27.572 44.3636 27.6254 44.1984 27.7345 44.101C27.6955 44.0374 27.681 43.9748 27.6858 43.9166C27.5168 43.5309 27.3637 43.1389 27.2267 42.7411C27.0212 42.4029 26.8218 42.0612 26.6291 41.7159C26.5509 41.8425 26.3879 41.9195 26.2315 41.8799C25.4925 41.6924 25.1005 41.0199 24.8935 40.3433C24.6601 39.5806 24.5639 38.7633 24.4376 37.9783C24.3007 37.1266 24.1824 36.2719 24.0811 35.4154C23.7094 34.4851 23.417 33.5266 23.2072 32.5507C27.2887 32.6303 31.3705 32.6968 35.453 32.7455C35.453 32.7455 42.459 32.3647 45.2182 32.2328C46.0771 32.1917 46.6434 32.1549 47.0593 32.0892C47.0376 32.1112 47.0119 32.1337 46.9792 32.1571C46.9101 32.2072 46.8394 32.2543 46.7705 32.305C46.6483 32.3951 46.5187 32.4895 46.3835 32.588C44.4697 33.9823 41.4208 36.2037 41.7862 38.6498C41.883 39.2968 42.5569 40.029 43.2384 39.9991C44.7548 39.9324 45.2146 39.2611 46.1792 38.1887C47.0633 37.2058 48.0497 36.3044 49.0767 35.4793C51.1664 33.8 53.5084 32.5439 55.9975 31.6006C57.3337 31.0942 57.2516 29.1699 56.2386 28.4172C55.8731 28.1455 55.5074 27.8737 55.1419 27.6022C55.158 27.6022 55.174 27.6015 55.1902 27.6015C55.7761 27.6009 55.8591 26.7572 55.2707 26.6716C54.7294 26.5931 54.1921 26.5371 53.6583 26.4996L49.696 23.555C47.6997 22.0716 45.584 19.9619 43.2495 19.0938C41.8959 18.5904 40.9862 20.2275 41.7547 21.301C43.2117 23.3364 45.8378 24.8398 47.7816 26.3817C47.9571 26.5209 48.1326 26.6601 48.3079 26.7993C48.3079 26.7993 48.7636 27.0817 48.7774 27.4427C48.7835 27.6003 48.5286 27.7114 48.2396 27.7869L35.6455 27.987C31.2015 28.0575 26.7559 28.1759 22.3103 28.2667L22.31 28.2608C22.1851 26.1074 22.622 23.956 23.5531 22.0069C23.6136 21.8802 23.715 21.8299 23.8198 21.8311C23.9036 21.6549 23.9895 21.4795 24.0795 21.3064C24.1322 21.205 24.1871 21.105 24.242 21.0049C24.4346 20.497 24.6801 20.0124 24.9747 19.5576C25.0587 19.2739 25.1443 18.9863 25.2886 18.7257C25.4233 18.4825 25.6159 18.2771 25.8282 18.0982C25.9605 17.9868 26.095 17.8776 26.2307 17.7696C26.3855 17.3084 26.5403 16.8473 26.6951 16.3861C26.612 15.6836 26.8547 14.9813 27.341 14.4713C27.381 14.383 27.455 14.3199 27.5406 14.2859C27.6094 14.2284 27.6805 14.1731 27.7564 14.1229C27.8448 14.0643 27.9381 14.0582 28.0212 14.0852C28.619 13.5212 29.2391 12.9804 29.8818 12.4663C32.9692 9.99628 36.523 8.1207 40.3226 6.96961C40.4817 6.92136 40.6024 6.9747 40.6733 7.06911C41.5619 6.79587 42.4551 6.53778 43.3533 6.29703C43.6495 6.14561 43.9525 6.00703 44.2608 5.8812C44.1894 5.70778 44.2443 5.49178 44.4813 5.43561C45.3761 5.22345 46.2908 5.11386 47.2059 5.10561C50.0643 4.73103 53.0597 5.3552 55.4651 6.94061C55.559 7.00245 55.6084 7.08536 55.6241 7.17078C58.4257 7.94545 61.1011 9.15636 63.5211 10.7544C63.7133 10.8814 63.7219 11.1052 63.6185 11.2519C63.6996 11.2498 63.7844 11.2807 63.8594 11.3597C63.9559 11.4613 64.0496 11.5654 64.1452 11.6679C64.2823 11.7524 64.4174 11.8403 64.5472 11.9354C64.6686 12.0243 64.7147 12.1539 64.7029 12.2735C65.1882 12.8126 65.6617 13.3621 66.1212 13.9227C66.7567 14.4471 67.3776 14.9887 67.9797 15.5503C68.6845 16.2074 69.3944 16.9951 69.6682 17.911C69.7225 17.8968 69.7793 17.8958 69.8347 17.9183C70.1808 18.0587 70.493 18.2543 70.7627 18.4918C70.7991 18.4849 70.8362 18.4804 70.8741 18.4787C71.5927 18.4459 71.8662 19.3347 71.9801 19.8872C72.1342 20.6346 72.0737 21.4153 71.787 22.1246C71.7151 22.3026 71.54 22.419 71.3552 22.3651C71.496 23.669 71.4977 24.9834 71.3602 26.2901C71.5422 27.3916 71.7111 28.4953 71.8663 29.6009C71.8921 29.7844 71.8242 29.9723 71.6225 30.0248C71.4987 30.057 71.3432 30.0114 71.2563 29.9123C71.1992 30.6119 71.1131 31.3093 70.9969 32.0018C71.0047 31.9867 71.0121 31.9714 71.0199 31.9564C71.1403 31.725 71.4408 31.7518 71.5873 31.916C71.6908 31.9773 71.7707 32.0819 71.7758 32.2057Z" id="Combined-Shape" fill="#FFF" fill-rule="evenodd" stroke="none" />
    </g>
  </g>
</svg>