<svg width="36" height="36" viewBox="0 0 36 36" fill="none" xmlns="http://www.w3.org/2000/svg">
<path fill-rule="evenodd" clip-rule="evenodd" d="M29.9996 10.2101L27.7496 12.4191V12.7891C27.7496 13.1921 27.6846 13.5791 27.5876 13.9531C27.5356 16.9931 26.5496 21.0241 22.4996 24.2071C14.5346 30.4661 5.99963 24.9441 5.99963 24.9441C12.7496 24.9441 12.7496 22.7341 12.7496 22.7341C11.2496 22.7341 8.24963 19.7871 8.24963 19.7871C8.99963 20.5231 10.4996 19.7871 10.4996 19.7871C6.74963 17.5771 6.74963 15.3671 6.74963 15.3671C7.49963 16.1031 8.99963 15.3671 8.99963 15.3671C5.24963 12.4191 7.49963 8.73612 7.49963 8.73612C8.24963 12.4191 17.9996 13.8931 17.9996 13.8931L18.1246 13.8321C18.0476 13.4951 17.9996 12.7801 17.9996 12.4191C17.9996 9.77512 20.1826 8.00012 22.8756 8.00012C24.3566 8.00012 25.6686 8.66412 26.5616 9.68812L26.9996 9.47312L29.2506 8.00012L27.7496 10.9471L29.9996 10.2101Z" fill="white"/>
</svg>
