<svg width="26" height="26" viewBox="0 0 26 26" fill="none" xmlns="http://www.w3.org/2000/svg">
<rect width="26" height="26" fill="black"/>
<path fill-rule="evenodd" clip-rule="evenodd" d="M12.8946 8.18579C12.8946 8.8164 12.7034 9.13304 12.304 9.13304C11.9056 9.13304 11.7134 8.8164 11.7134 8.18579V5.3129C11.7134 4.68139 11.9056 4.36564 12.304 4.36564C12.7034 4.36564 12.8946 4.68139 12.8946 5.3129V8.18579ZM12.304 3.25117C11.6877 3.25117 11.2074 3.4851 10.864 3.95116C10.6008 4.29716 10.4771 4.83082 10.4771 5.56105V7.95098C10.4771 8.67854 10.6008 9.21576 10.864 9.5582C11.2056 10.0234 11.6877 10.2564 12.304 10.2564C12.924 10.2564 13.4061 10.0234 13.7476 9.5582C14.0073 9.21576 14.1318 8.67854 14.1318 7.95098V5.56105C14.1318 4.83082 14.0073 4.29716 13.7476 3.95116C13.4061 3.4851 12.924 3.25117 12.304 3.25117ZM9.07804 1H10.4647L8.81476 6.45138V10.163H7.44235V6.45138C7.31783 5.79497 7.04389 4.83082 6.60361 3.55358C6.31365 2.70328 6.01213 1.84942 5.72396 1H7.16841L8.14145 4.59779L9.07804 1ZM17.4699 3.33389H18.708V10.163H17.4699V9.41855C16.9772 9.98246 16.5084 10.2564 16.0575 10.2564C15.6581 10.2564 15.3842 10.0954 15.2596 9.74943C15.192 9.54219 15.1502 9.21576 15.1502 8.73369V3.33389H16.3839V8.36101C16.3839 8.65186 16.3839 8.80217 16.3981 8.8422C16.4257 9.03521 16.5227 9.13304 16.689 9.13304C16.9354 9.13304 17.1951 8.94092 17.4699 8.55402V3.33389ZM15.9063 17.3168V20.2004C15.9063 20.8114 15.7266 21.112 15.3735 21.112C15.1716 21.112 14.9661 21.016 14.7625 20.8114V16.6915C14.9661 16.4905 15.1716 16.3944 15.3735 16.3944C15.7266 16.3944 15.9063 16.7075 15.9063 17.3168ZM20.5269 17.3319V17.9572H19.3022V17.3319C19.3022 16.7075 19.5067 16.3944 19.9168 16.3944C20.3223 16.3944 20.5269 16.7075 20.5269 17.3319ZM21.7517 18.9774H21.7508H19.3022V20.1754C19.3022 20.7998 19.5067 21.112 19.9283 21.112C20.229 21.112 20.4051 20.9484 20.4744 20.6211C20.4851 20.5552 20.5011 20.2831 20.5011 19.7921H21.7508V19.97C21.7508 20.3649 21.7357 20.6362 21.7241 20.7598C21.6832 21.0302 21.5871 21.2766 21.4386 21.4927C21.1006 21.9837 20.5981 22.2247 19.9577 22.2247C19.3182 22.2247 18.829 21.9952 18.4768 21.5336C18.217 21.1956 18.0827 20.662 18.0827 19.9442V17.5774C18.0827 16.8561 18.201 16.3277 18.4607 15.9862C18.8156 15.5237 19.3022 15.2924 19.9283 15.2924C20.542 15.2924 21.0294 15.5237 21.3719 15.9862C21.6289 16.3277 21.7517 16.8561 21.7517 17.5774V18.9774ZM17.1301 20.1043C17.1301 20.7287 17.0874 21.1787 17.0056 21.4651C16.8429 21.9677 16.5146 22.2247 16.0272 22.2247C15.5923 22.2247 15.1716 21.9837 14.7625 21.4767V22.1322H13.5386V13.0626H14.7625V16.0253C15.1574 15.5388 15.5781 15.2924 16.0272 15.2924C16.5146 15.2924 16.8429 15.5477 17.0056 16.0556C17.0883 16.3259 17.1301 16.7742 17.1301 17.4137V20.1043ZM12.4784 22.1322H11.2527V21.3958C10.7662 21.9525 10.3046 22.2247 9.85541 22.2247C9.45961 22.2247 9.18833 22.0646 9.06558 21.7222C8.99977 21.5176 8.95796 21.1956 8.95796 20.718V15.3751H10.1818V20.3498C10.1818 20.6362 10.1818 20.7856 10.1916 20.8256C10.2219 21.016 10.3152 21.112 10.4789 21.112C10.7253 21.112 10.9823 20.9235 11.2527 20.5401V15.3751H12.4784V22.1322ZM8.78007 14.3398H7.3125V22.1322H5.95076V14.3398H4.51076V13.0626H8.78007V14.3398ZM22.9097 13.1506C22.6616 12.0735 21.7801 11.2793 20.7199 11.1601C18.2081 10.879 15.6643 10.8772 13.1339 10.879C10.6016 10.8772 8.05874 10.879 5.54607 11.1601C4.48585 11.2793 3.60442 12.0735 3.35627 13.1506C3.00405 14.6858 2.9996 16.3597 2.9996 17.9394C2.9996 19.5199 2.9996 21.1956 3.35271 22.7299C3.60086 23.8061 4.48141 24.6004 5.54251 24.7196C8.05429 24.9998 10.5972 25.0016 13.1285 24.9998C15.6608 25.0016 18.2037 24.9998 20.7146 24.7196C21.7757 24.6004 22.658 23.8061 22.9053 22.7299C23.2584 21.1956 23.2593 19.5199 23.2593 17.9394C23.2593 16.3597 23.2619 14.6858 22.9097 13.1506Z" fill="white"/>
</svg>
